# xmcd CD database file
#
# Track frame offsets:
#	150
#	12200
#	26060
#	42575
#	56507
#	71765
#	87075
#	103622
#	116357
#	130217
#	143735
#	158200
#	171490
#	184125
#	196392
#	206915
#	222732
#
# Disc length: 3121 seconds
#
# Revision: 0
# Processed by: cddbd v1.5.2PL0 Copyright (c) Steve Scherf et al.
# Submitted via: CDex 1.51
#
DISCID=020c2f11
DTITLE=The Country Dance Kings - Country Line Dance Jamboree
DYEAR=1997
DGENRE=Country
TTITLE0=Hillbilly Rock
TTITLE1=Boot Scootin' Boogie
TTITLE2=I Feel Lucky
TTITLE3=Honky Tonk Blues
TTITLE4=Can't Keep A Good Man Down
TTITLE5=Achy Breaky Heart
TTITLE6=No One Else On Earth
TTITLE7=Dumas Walker
TTITLE8=Guitars,. Cadillacs
TTITLE9=Super Love
TTITLE10=Bubba Shot The Jukebox
TTITLE11=Papa Loved Mama
TTITLE12=I'm In A Hurry
TTITLE13=What Part of No
TTITLE14=One More Payment
TTITLE15=A Jukebox With A Country Song
TTITLE16=Watcha Gonna Do With A Cowboy
EXTD=YEAR: 1997
EXTT0=
EXTT1=
EXTT2=
EXTT3=
EXTT4=
EXTT5=
EXTT6=
EXTT7=
EXTT8=
EXTT9=
EXTT10=
EXTT11=
EXTT12=
EXTT13=
EXTT14=
EXTT15=
EXTT16=
PLAYORDER=
